<svg xmlns="http://www.w3.org/2000/svg" viewBox="0 0 1688.15 187.13">
    <title>logo</title>
    <g id="Layer_2" data-name="Layer 2">
        <g id="Layer_1-2" data-name="Layer 1">
            <path d="M1688.15,159.15,1673.81,184l-28.67,0-14.32-24.83,14.35-24.82,28.67,0Zm-114-43.44L1613.45,184h-35.88l-28.44-49.41c-2.71-4.26-4-6.7-10.8-7.06h-14.09V184h-32.11V2.88h32.11V98.34h17.15c7.11-.38,8.34-3,11.33-7.65l25-43.13h35.77ZM1468.77,60.44a75.37,75.37,0,0,0-16.2-9.78,68.79,68.79,0,0,0-28.29-5.92A71.33,71.33,0,0,0,1388,54.48a74.92,74.92,0,0,0-26.85,26.05,66.26,66.26,0,0,0-10,35.27,66.93,66.93,0,0,0,10,35.4,74.81,74.81,0,0,0,26.71,26.18,72.17,72.17,0,0,0,65.14,3.69,74.47,74.47,0,0,0,16.07-9.83l-14.47-25.09h0a41.7,41.7,0,0,1-13.55,9.8,40.19,40.19,0,0,1-17,3.81,38,38,0,0,1-20.52-5.92,42.6,42.6,0,0,1-15-16.06,45.06,45.06,0,0,1-5.53-22,44.56,44.56,0,0,1,5.53-21.71,42.59,42.59,0,0,1,15-16.06A38,38,0,0,1,1424,72.12a41.4,41.4,0,0,1,30.19,13.59l11.1-19.2ZM1329.41,102v82h-32.24V168.54c-10,12.66-26.29,18.59-42.11,18.59-29,0-50.89-17.14-50.89-43.5,0-26.89,25-45.43,55.63-45.43h37.37c-1.48-15.66-9.82-27.34-32.62-27.34-12.39,0-24.29,4.12-35.47,9.58l-12.51-21.7c19.25-9.49,37.17-14.24,54.31-14.24C1307,44.49,1329.41,67.43,1329.41,102Zm-32.24,19.21h-32.62c-16.08,0-29,8.48-29,21.4s11.34,21.09,26.63,21.09c22,0,35-13.57,35-26.47ZM1148.38,184h32.11V2.88h-32.11Zm-33.89-76.14a44.45,44.45,0,0,1,8.68,26.72,45.15,45.15,0,0,1-7.37,25.4,49.63,49.63,0,0,1-20.53,17.5c-8.78,4.21-18.69,6.32-29.74,6.53H974V3h88.13q15.52,0,27.63,5.79a45.72,45.72,0,0,1,18.95,16.19,41.45,41.45,0,0,1,6.85,23.29q0,26.32-25.53,40Q1105.8,95.86,1114.49,107.83ZM1006,75.63h48.17q12.1,0,19.87-6.27t7.76-15.73a19.67,19.67,0,0,0-7.76-16q-7.77-6.27-19.87-6.27H1006Zm83.43,53.91a23.23,23.23,0,0,0-8.55-18.55q-8.56-7.23-22-7.24H1006v51.59H1059q13.42,0,22-7.24A23.23,23.23,0,0,0,1089.48,129.54ZM851.22,51.35A50.85,50.85,0,0,0,825,44.64a53,53,0,0,0-24.48,5.79A44.8,44.8,0,0,0,782.92,66V47.56H750.81V184h32.11V97.8a27.86,27.86,0,0,1,10.92-18.42,34.44,34.44,0,0,1,22-7.37q12.63,0,20.66,8.81t8,22.77V184h31.06V97.28A56.56,56.56,0,0,0,869.11,70,47.12,47.12,0,0,0,851.22,51.35ZM722.09,80.54a66.3,66.3,0,0,1,10,35.27,67,67,0,0,1-10,35.4,74.9,74.9,0,0,1-26.71,26.18,72.1,72.1,0,0,1-72.38,0,74.84,74.84,0,0,1-26.71-26.18,66.92,66.92,0,0,1-10-35.4,66.26,66.26,0,0,1,10-35.27A75.27,75.27,0,0,1,623,54.48a72.11,72.11,0,0,1,72.38,0A75.33,75.33,0,0,1,722.09,80.54Zm-21.58,35.27A44.91,44.91,0,0,0,679.72,78a38,38,0,0,0-20.53-5.92A38.65,38.65,0,0,0,638.53,78a43.27,43.27,0,0,0-15.27,16.06,43.82,43.82,0,0,0-5.66,21.71,44.3,44.3,0,0,0,5.66,22,43.27,43.27,0,0,0,15.27,16.06,38.65,38.65,0,0,0,20.66,5.92,38,38,0,0,0,20.53-5.92,43.68,43.68,0,0,0,15.13-16.06A44.34,44.34,0,0,0,700.51,115.81ZM561.14,79.09a81.66,81.66,0,0,1,8.32,36.71,82.52,82.52,0,0,1-8.32,36.85,61.66,61.66,0,0,1-22.24,25.4,58.36,58.36,0,0,1-32.11,9.08,55.66,55.66,0,0,1-47.38-24.74v21.69H427.31V3h32.11v66.5A55.66,55.66,0,0,1,506.8,44.74a58.36,58.36,0,0,1,32.11,9.08A61.8,61.8,0,0,1,561.14,79.09Zm-23.82,36.71q0-19.21-11.05-31.45T498.11,72.12q-16.85,0-27.63,12.24c-7.2,8.16-11,18.65-11,31.45s3.83,23.34,11,31.58,16.4,12.37,27.63,12.37q17.11,0,28.17-12.37T537.32,115.81ZM354.71,69.62V47.57H322.61V184h32.11V118.1q0-19.47,13.42-31.32c8.95-7.9,20.7-10.93,35.27-10.93V47.57C388.51,47.57,364.32,58.15,354.71,69.62ZM298.59,102v82H266.35V168.54c-10,12.66-26.29,18.59-42.11,18.59-29,0-50.89-17.14-50.89-43.5,0-26.89,25-45.43,55.63-45.43h37.37c-1.48-15.66-9.82-27.34-32.62-27.34-12.39,0-24.29,4.12-35.47,9.58l-12.51-21.7c19.25-9.49,37.17-14.24,54.31-14.24C276.18,44.49,298.59,67.43,298.59,102Zm-32.24,19.21H233.73c-16.08,0-29,8.48-29,21.4s11.34,21.09,26.63,21.09c22,0,35-13.57,35-26.47Zm-126.26,16a62.67,62.67,0,1,1,0-87.2l15.79-27.31A94.42,94.42,0,0,0,94.34,0C42.24,0,0,41.89,0,93.57s42.24,93.57,94.34,93.57a94.42,94.42,0,0,0,61.51-22.63Z"/>
        </g>
    </g>
</svg>